<svg width="128" height="128" viewBox="0 0 128 128" fill="none" xmlns="http://www.w3.org/2000/svg">
<path d="M75.2197 111.897H110.936C110.936 116.168 109.245 120.264 106.234 123.284C103.224 126.304 99.1408 128 94.8834 128H75.2197V111.897Z" fill="#B8B8B8"/>
<path d="M56.0195 2.28882e-05L56.0195 128H72.1228V2.28882e-05H56.0195Z" fill="#B8B8B8"/>
<path d="M32.9656 92C32.9659 86.6958 35.0686 81.6089 38.8112 77.8582C42.5538 74.1076 47.6298 72.0003 52.9226 72V56C47.6297 56 42.5535 53.8929 38.8109 50.1421C35.0682 46.3914 32.9656 41.3043 32.9656 36C32.9656 30.6957 35.0682 25.6086 38.8109 21.8579C42.5535 18.1071 47.6297 16 52.9226 16V0C33.0831 0 17 16.1178 17 36C16.9952 41.37 18.1915 46.6728 20.5011 51.5183C22.8107 56.3639 26.1748 60.629 30.346 64C26.1748 67.3709 22.8107 71.6361 20.5011 76.4816C18.1915 81.3272 16.9952 86.63 17 92C17 111.882 33.0831 128 52.9226 128V112C47.6298 112 42.5538 109.892 38.8112 106.142C35.0686 102.391 32.9659 97.3042 32.9656 92V92Z" fill="#B8B8B8"/>
</svg>
