<?xml version="1.0" standalone="no"?>
<!DOCTYPE svg PUBLIC "-//W3C//DTD SVG 20010904//EN"
 "http://www.w3.org/TR/2001/REC-SVG-20010904/DTD/svg10.dtd">
<svg version="1.0" xmlns="http://www.w3.org/2000/svg"
 width="260.000000pt" height="260.000000pt" viewBox="0 0 260.000000 260.000000"
 preserveAspectRatio="xMidYMid meet">
<metadata>
Created by potrace 1.11, written by Peter Selinger 2001-2013
</metadata>
<g transform="translate(0.000000,260.000000) scale(0.100000,-0.100000)"
fill="#5bbad5" stroke="none">
<path d="M1122 2356 c-333 -64 -611 -262 -766 -546 -163 -300 -173 -668 -26
-977 124 -261 354 -467 624 -559 166 -57 398 -71 571 -35 443 92 786 460 846
907 73 549 -275 1059 -816 1195 -106 26 -331 34 -433 15z m398 -206 c531 -129
816 -727 586 -1225 -261 -564 -1003 -691 -1436 -245 -174 179 -260 409 -247
660 7 126 27 208 77 316 51 112 105 186 191 270 89 84 147 125 242 169 186 86
385 104 587 55z"/>
<path d="M1205 2049 c-167 -20 -311 -93 -440 -223 -100 -101 -154 -191 -196
-326 -31 -97 -33 -298 -5 -400 71 -262 284 -475 546 -546 90 -24 291 -25 380
-1 36 9 108 38 160 64 81 40 109 60 191 142 81 82 102 110 141 191 26 52 54
127 64 165 24 98 22 266 -5 367 -98 374 -452 613 -836 567z m260 -211 c40 -10
128 -51 153 -71 10 -8 -75 -99 -380 -404 -216 -216 -396 -393 -399 -393 -11 0
-67 113 -83 169 -25 84 -25 84 55 105 192 49 369 187 471 366 25 43 70 166 83
223 6 30 3 29 100 5z m-309 -36 c-31 -88 -72 -150 -145 -222 -73 -73 -161
-127 -236 -146 -25 -6 -27 -5 -20 17 16 57 78 168 121 217 70 80 214 169 276
171 16 1 16 -3 4 -37z m653 -251 c25 -48 65 -172 58 -177 -1 0 -24 -7 -52 -13
-150 -37 -272 -108 -382 -225 -91 -95 -152 -205 -182 -326 -10 -41 -23 -76
-30 -78 -25 -8 -170 46 -231 87 -12 9 61 87 379 405 217 217 399 393 403 390
5 -3 21 -31 37 -63z m51 -386 c0 -13 -45 -121 -68 -163 -42 -76 -149 -175
-234 -216 -40 -19 -85 -38 -100 -41 l-27 -7 11 39 c30 113 120 237 220 307 71
49 198 101 198 81z"/>
</g>
</svg>
